<mxfile host="app.diagrams.net" modified="2023-08-16T21:12:47.319Z" agent="Mozilla/5.0 (Windows NT 6.3; Win64; x64) AppleWebKit/537.36 (KHTML, like Gecko) Chrome/109.0.0.0 Safari/537.36 OPR/95.0.0.0" etag="RoHfeujEgdi1OyPMbX6S" version="21.6.8" type="device">
  <diagram name="Página-1" id="DUn3bFaLTXw3OKuoVKrn">
    <mxGraphModel dx="1826" dy="2483" grid="1" gridSize="10" guides="1" tooltips="1" connect="1" arrows="1" fold="1" page="1" pageScale="1" pageWidth="827" pageHeight="1169" math="0" shadow="0">
      <root>
        <mxCell id="0" />
        <mxCell id="1" parent="0" />
        <mxCell id="-S50gkUpp2dCDsw27XBV-12" value="Capa de presentación" style="shape=folder;fontStyle=1;tabWidth=240;tabHeight=30;tabPosition=left;html=1;boundedLbl=1;labelInHeader=1;container=1;collapsible=0;whiteSpace=wrap;fontSize=20;" parent="1" vertex="1">
          <mxGeometry x="570" y="-1080" width="1010" height="530" as="geometry" />
        </mxCell>
        <mxCell id="-S50gkUpp2dCDsw27XBV-13" value="" style="html=1;strokeColor=none;resizeWidth=1;resizeHeight=1;fillColor=none;part=1;connectable=0;allowArrows=0;deletable=0;whiteSpace=wrap;fontSize=20;" parent="-S50gkUpp2dCDsw27XBV-12" vertex="1">
          <mxGeometry width="1010" height="371.00000000000006" relative="1" as="geometry">
            <mxPoint y="30" as="offset" />
          </mxGeometry>
        </mxCell>
        <mxCell id="-S50gkUpp2dCDsw27XBV-16" value="css" style="shape=folder;fontStyle=1;spacingTop=10;tabWidth=40;tabHeight=14;tabPosition=left;html=1;whiteSpace=wrap;fontSize=20;" parent="-S50gkUpp2dCDsw27XBV-12" vertex="1">
          <mxGeometry x="398.1474712643678" y="228.63932773109244" width="164.30494252873564" height="120.44880952380953" as="geometry" />
        </mxCell>
        <mxCell id="-S50gkUpp2dCDsw27XBV-17" value="html" style="shape=folder;fontStyle=1;spacingTop=10;tabWidth=40;tabHeight=14;tabPosition=left;html=1;whiteSpace=wrap;fontSize=20;" parent="-S50gkUpp2dCDsw27XBV-12" vertex="1">
          <mxGeometry x="39.99655172413793" y="218.23677871148462" width="164.30494252873564" height="120.44880952380953" as="geometry" />
        </mxCell>
        <mxCell id="-S50gkUpp2dCDsw27XBV-18" value="js" style="shape=folder;fontStyle=1;spacingTop=10;tabWidth=40;tabHeight=14;tabPosition=left;html=1;whiteSpace=wrap;fontSize=20;" parent="-S50gkUpp2dCDsw27XBV-12" vertex="1">
          <mxGeometry x="750.002183908046" y="228.63413165266107" width="164.30494252873564" height="120.44880952380953" as="geometry" />
        </mxCell>
        <mxCell id="-S50gkUpp2dCDsw27XBV-19" value="partials" style="shape=folder;fontStyle=1;spacingTop=10;tabWidth=40;tabHeight=14;tabPosition=left;html=1;whiteSpace=wrap;fontSize=20;" parent="-S50gkUpp2dCDsw27XBV-12" vertex="1">
          <mxGeometry x="580.9965517241379" y="374.11467787114844" width="164.30494252873564" height="120.44880952380953" as="geometry" />
        </mxCell>
        <mxCell id="-S50gkUpp2dCDsw27XBV-26" value="assets" style="shape=folder;fontStyle=1;spacingTop=10;tabWidth=40;tabHeight=14;tabPosition=left;html=1;whiteSpace=wrap;fontSize=20;" parent="-S50gkUpp2dCDsw27XBV-12" vertex="1">
          <mxGeometry x="209.99689655172415" y="384.5060924369748" width="164.30494252873564" height="120.44880952380953" as="geometry" />
        </mxCell>
        <mxCell id="-S50gkUpp2dCDsw27XBV-48" value="views" style="shape=folder;fontStyle=1;spacingTop=10;tabWidth=40;tabHeight=14;tabPosition=left;html=1;whiteSpace=wrap;fontSize=20;" parent="-S50gkUpp2dCDsw27XBV-12" vertex="1">
          <mxGeometry x="398.1500000000001" y="31.176470588235297" width="150" height="124.70588235294119" as="geometry" />
        </mxCell>
        <mxCell id="-S50gkUpp2dCDsw27XBV-49" style="edgeStyle=orthogonalEdgeStyle;rounded=0;orthogonalLoop=1;jettySize=auto;html=1;entryX=0.511;entryY=0.098;entryDx=0;entryDy=0;entryPerimeter=0;dashed=1;strokeWidth=3;exitX=0.5;exitY=1;exitDx=0;exitDy=0;exitPerimeter=0;" parent="-S50gkUpp2dCDsw27XBV-12" source="-S50gkUpp2dCDsw27XBV-48" target="-S50gkUpp2dCDsw27XBV-17" edge="1">
          <mxGeometry relative="1" as="geometry">
            <mxPoint x="-130" y="810.5882352941177" as="sourcePoint" />
            <mxPoint x="200" y="810.5882352941177" as="targetPoint" />
          </mxGeometry>
        </mxCell>
        <mxCell id="-S50gkUpp2dCDsw27XBV-50" style="edgeStyle=orthogonalEdgeStyle;rounded=0;orthogonalLoop=1;jettySize=auto;html=1;entryX=0.494;entryY=0.131;entryDx=0;entryDy=0;entryPerimeter=0;dashed=1;strokeWidth=3;exitX=0.5;exitY=1;exitDx=0;exitDy=0;exitPerimeter=0;" parent="-S50gkUpp2dCDsw27XBV-12" source="-S50gkUpp2dCDsw27XBV-48" target="-S50gkUpp2dCDsw27XBV-16" edge="1">
          <mxGeometry relative="1" as="geometry">
            <mxPoint x="483" y="166.27450980392157" as="sourcePoint" />
            <mxPoint x="134" y="240.0588235294118" as="targetPoint" />
          </mxGeometry>
        </mxCell>
        <mxCell id="-S50gkUpp2dCDsw27XBV-51" style="edgeStyle=orthogonalEdgeStyle;rounded=0;orthogonalLoop=1;jettySize=auto;html=1;entryX=0.544;entryY=0.105;entryDx=0;entryDy=0;entryPerimeter=0;dashed=1;strokeWidth=3;exitX=0.5;exitY=1;exitDx=0;exitDy=0;exitPerimeter=0;" parent="-S50gkUpp2dCDsw27XBV-12" source="-S50gkUpp2dCDsw27XBV-48" target="-S50gkUpp2dCDsw27XBV-18" edge="1">
          <mxGeometry relative="1" as="geometry">
            <mxPoint x="493" y="176.66666666666669" as="sourcePoint" />
            <mxPoint x="144" y="250.45098039215688" as="targetPoint" />
          </mxGeometry>
        </mxCell>
        <mxCell id="-S50gkUpp2dCDsw27XBV-52" style="edgeStyle=orthogonalEdgeStyle;rounded=0;orthogonalLoop=1;jettySize=auto;html=1;entryX=0.525;entryY=0.098;entryDx=0;entryDy=0;entryPerimeter=0;dashed=1;strokeWidth=3;exitX=0.5;exitY=1;exitDx=0;exitDy=0;exitPerimeter=0;" parent="-S50gkUpp2dCDsw27XBV-12" source="-S50gkUpp2dCDsw27XBV-48" target="-S50gkUpp2dCDsw27XBV-26" edge="1">
          <mxGeometry relative="1" as="geometry">
            <mxPoint x="503" y="187.05882352941177" as="sourcePoint" />
            <mxPoint x="154" y="260.843137254902" as="targetPoint" />
            <Array as="points">
              <mxPoint x="473" y="218.23529411764707" />
              <mxPoint x="296" y="218.23529411764707" />
            </Array>
          </mxGeometry>
        </mxCell>
        <mxCell id="-S50gkUpp2dCDsw27XBV-53" style="edgeStyle=orthogonalEdgeStyle;rounded=0;orthogonalLoop=1;jettySize=auto;html=1;entryX=0.552;entryY=0.078;entryDx=0;entryDy=0;entryPerimeter=0;dashed=1;strokeWidth=3;exitX=0.5;exitY=1;exitDx=0;exitDy=0;exitPerimeter=0;" parent="-S50gkUpp2dCDsw27XBV-12" source="-S50gkUpp2dCDsw27XBV-48" target="-S50gkUpp2dCDsw27XBV-19" edge="1">
          <mxGeometry relative="1" as="geometry">
            <mxPoint x="513" y="197.45098039215688" as="sourcePoint" />
            <mxPoint x="164" y="271.2352941176471" as="targetPoint" />
            <Array as="points">
              <mxPoint x="473" y="218.23529411764707" />
              <mxPoint x="672" y="218.23529411764707" />
            </Array>
          </mxGeometry>
        </mxCell>
        <mxCell id="-S50gkUpp2dCDsw27XBV-27" value="&lt;font style=&quot;font-size: 20px;&quot;&gt;Capa general (núcleo)&lt;/font&gt;" style="shape=folder;fontStyle=1;tabWidth=240;tabHeight=30;tabPosition=left;html=1;boundedLbl=1;labelInHeader=1;container=1;collapsible=0;whiteSpace=wrap;fontSize=20;" parent="1" vertex="1">
          <mxGeometry x="700" y="130" width="1500" height="630" as="geometry" />
        </mxCell>
        <mxCell id="-S50gkUpp2dCDsw27XBV-28" value="" style="html=1;strokeColor=none;resizeWidth=1;resizeHeight=1;fillColor=none;part=1;connectable=0;allowArrows=0;deletable=0;whiteSpace=wrap;fontSize=20;" parent="-S50gkUpp2dCDsw27XBV-27" vertex="1">
          <mxGeometry width="1500.0000000000005" height="441" relative="1" as="geometry">
            <mxPoint y="30" as="offset" />
          </mxGeometry>
        </mxCell>
        <mxCell id="-S50gkUpp2dCDsw27XBV-29" value="core" style="shape=folder;fontStyle=1;spacingTop=10;tabWidth=40;tabHeight=14;tabPosition=left;html=1;whiteSpace=wrap;fontSize=20;" parent="-S50gkUpp2dCDsw27XBV-27" vertex="1">
          <mxGeometry x="620.95952023988" y="75.6" width="166.14692653673163" height="111.43125" as="geometry" />
        </mxCell>
        <mxCell id="-S50gkUpp2dCDsw27XBV-33" value="config" style="shape=folder;fontStyle=1;spacingTop=10;tabWidth=40;tabHeight=14;tabPosition=left;html=1;whiteSpace=wrap;fontSize=20;" parent="-S50gkUpp2dCDsw27XBV-27" vertex="1">
          <mxGeometry x="40.00188905547226" y="299.99875" width="166.14692653673163" height="111.43125" as="geometry" />
        </mxCell>
        <mxCell id="-S50gkUpp2dCDsw27XBV-34" value="database" style="shape=folder;fontStyle=1;spacingTop=10;tabWidth=40;tabHeight=14;tabPosition=left;html=1;whiteSpace=wrap;fontSize=20;" parent="-S50gkUpp2dCDsw27XBV-27" vertex="1">
          <mxGeometry x="180.0038230884558" y="433.12125" width="166.14692653673163" height="111.43125" as="geometry" />
        </mxCell>
        <mxCell id="-S50gkUpp2dCDsw27XBV-35" value="security" style="shape=folder;fontStyle=1;spacingTop=10;tabWidth=40;tabHeight=14;tabPosition=left;html=1;whiteSpace=wrap;fontSize=20;" parent="-S50gkUpp2dCDsw27XBV-27" vertex="1">
          <mxGeometry x="660.0010644677661" y="470.005" width="166.14692653673163" height="111.43125" as="geometry" />
        </mxCell>
        <mxCell id="-S50gkUpp2dCDsw27XBV-36" value="helpers" style="shape=folder;fontStyle=1;spacingTop=10;tabWidth=40;tabHeight=14;tabPosition=left;html=1;whiteSpace=wrap;fontSize=20;" parent="-S50gkUpp2dCDsw27XBV-27" vertex="1">
          <mxGeometry x="409.99700149925036" y="469.99875" width="166.14692653673163" height="111.43125" as="geometry" />
        </mxCell>
        <mxCell id="-S50gkUpp2dCDsw27XBV-37" value="testing" style="shape=folder;fontStyle=1;spacingTop=10;tabWidth=40;tabHeight=14;tabPosition=left;html=1;whiteSpace=wrap;fontSize=20;" parent="-S50gkUpp2dCDsw27XBV-27" vertex="1">
          <mxGeometry x="910.0040029985007" y="460.005" width="166.14692653673163" height="111.43125" as="geometry" />
        </mxCell>
        <mxCell id="-S50gkUpp2dCDsw27XBV-38" value="utils" style="shape=folder;fontStyle=1;spacingTop=10;tabWidth=40;tabHeight=14;tabPosition=left;html=1;whiteSpace=wrap;fontSize=20;" parent="-S50gkUpp2dCDsw27XBV-27" vertex="1">
          <mxGeometry x="1180.0003148425785" y="470.00125" width="166.14692653673163" height="111.43125" as="geometry" />
        </mxCell>
        <mxCell id="-S50gkUpp2dCDsw27XBV-40" value="" style="endArrow=classic;html=1;rounded=0;exitX=0.5;exitY=1;exitDx=0;exitDy=0;exitPerimeter=0;entryX=0.536;entryY=0.121;entryDx=0;entryDy=0;entryPerimeter=0;dashed=1;strokeWidth=3;" parent="-S50gkUpp2dCDsw27XBV-27" source="-S50gkUpp2dCDsw27XBV-29" target="-S50gkUpp2dCDsw27XBV-33" edge="1">
          <mxGeometry width="50" height="50" relative="1" as="geometry">
            <mxPoint x="353.0734632683658" y="196.875" as="sourcePoint" />
            <mxPoint x="409.2953523238381" y="147.65625" as="targetPoint" />
          </mxGeometry>
        </mxCell>
        <mxCell id="-S50gkUpp2dCDsw27XBV-41" value="" style="endArrow=classic;html=1;rounded=0;entryX=0.528;entryY=0.106;entryDx=0;entryDy=0;entryPerimeter=0;dashed=1;strokeWidth=3;" parent="-S50gkUpp2dCDsw27XBV-27" target="-S50gkUpp2dCDsw27XBV-34" edge="1">
          <mxGeometry width="50" height="50" relative="1" as="geometry">
            <mxPoint x="712.8935532233883" y="187.03125" as="sourcePoint" />
            <mxPoint x="183.28335832083957" y="289.40625" as="targetPoint" />
          </mxGeometry>
        </mxCell>
        <mxCell id="-S50gkUpp2dCDsw27XBV-42" value="" style="endArrow=classic;html=1;rounded=0;exitX=0.5;exitY=1;exitDx=0;exitDy=0;exitPerimeter=0;entryX=0.5;entryY=0.115;entryDx=0;entryDy=0;entryPerimeter=0;dashed=1;strokeWidth=3;" parent="-S50gkUpp2dCDsw27XBV-27" source="-S50gkUpp2dCDsw27XBV-29" target="-S50gkUpp2dCDsw27XBV-36" edge="1">
          <mxGeometry width="50" height="50" relative="1" as="geometry">
            <mxPoint x="643.1784107946027" y="157.5" as="sourcePoint" />
            <mxPoint x="194.52773613193403" y="299.25" as="targetPoint" />
          </mxGeometry>
        </mxCell>
        <mxCell id="-S50gkUpp2dCDsw27XBV-43" value="" style="endArrow=classic;html=1;rounded=0;exitX=0.5;exitY=1;exitDx=0;exitDy=0;exitPerimeter=0;entryX=0.56;entryY=0.134;entryDx=0;entryDy=0;entryPerimeter=0;dashed=1;strokeWidth=3;" parent="-S50gkUpp2dCDsw27XBV-27" source="-S50gkUpp2dCDsw27XBV-29" target="-S50gkUpp2dCDsw27XBV-35" edge="1">
          <mxGeometry width="50" height="50" relative="1" as="geometry">
            <mxPoint x="654.4227886056972" y="167.34375" as="sourcePoint" />
            <mxPoint x="205.77211394302847" y="309.09375" as="targetPoint" />
          </mxGeometry>
        </mxCell>
        <mxCell id="-S50gkUpp2dCDsw27XBV-44" value="" style="endArrow=classic;html=1;rounded=0;exitX=0.5;exitY=1;exitDx=0;exitDy=0;exitPerimeter=0;entryX=0;entryY=0;entryDx=0;entryDy=14;entryPerimeter=0;dashed=1;strokeWidth=3;" parent="-S50gkUpp2dCDsw27XBV-27" source="-S50gkUpp2dCDsw27XBV-29" target="-S50gkUpp2dCDsw27XBV-37" edge="1">
          <mxGeometry width="50" height="50" relative="1" as="geometry">
            <mxPoint x="665.6671664167916" y="177.1875" as="sourcePoint" />
            <mxPoint x="217.01649175412294" y="318.9375" as="targetPoint" />
          </mxGeometry>
        </mxCell>
        <mxCell id="-S50gkUpp2dCDsw27XBV-45" value="" style="endArrow=classic;html=1;rounded=0;exitX=0.572;exitY=0.994;exitDx=0;exitDy=0;exitPerimeter=0;entryX=0;entryY=0;entryDx=0;entryDy=14;entryPerimeter=0;dashed=1;strokeWidth=3;" parent="-S50gkUpp2dCDsw27XBV-27" source="-S50gkUpp2dCDsw27XBV-29" target="-S50gkUpp2dCDsw27XBV-38" edge="1">
          <mxGeometry width="50" height="50" relative="1" as="geometry">
            <mxPoint x="676.911544227886" y="187.03125" as="sourcePoint" />
            <mxPoint x="228.26086956521738" y="328.78125" as="targetPoint" />
          </mxGeometry>
        </mxCell>
        <mxCell id="8Q9e8ioYnYChDULh_nPz-1" value="Text" style="edgeLabel;html=1;align=center;verticalAlign=middle;resizable=0;points=[];" vertex="1" connectable="0" parent="-S50gkUpp2dCDsw27XBV-45">
          <mxGeometry x="-0.163" y="3" relative="1" as="geometry">
            <mxPoint as="offset" />
          </mxGeometry>
        </mxCell>
        <mxCell id="8Q9e8ioYnYChDULh_nPz-8" value="Text" style="edgeLabel;html=1;align=center;verticalAlign=middle;resizable=0;points=[];" vertex="1" connectable="0" parent="-S50gkUpp2dCDsw27XBV-45">
          <mxGeometry x="0.2777" y="4" relative="1" as="geometry">
            <mxPoint x="-1" y="-1" as="offset" />
          </mxGeometry>
        </mxCell>
        <mxCell id="8Q9e8ioYnYChDULh_nPz-6" value="router" style="shape=folder;fontStyle=1;spacingTop=10;tabWidth=40;tabHeight=14;tabPosition=left;html=1;whiteSpace=wrap;fontSize=20;" vertex="1" parent="-S50gkUpp2dCDsw27XBV-27">
          <mxGeometry x="1270.0046926536731" y="321.685" width="166.14692653673163" height="111.43125" as="geometry" />
        </mxCell>
        <mxCell id="8Q9e8ioYnYChDULh_nPz-9" value="" style="endArrow=classic;html=1;rounded=0;entryX=0;entryY=0;entryDx=0;entryDy=38.3578125;entryPerimeter=0;dashed=1;strokeWidth=3;exitX=0.576;exitY=1.019;exitDx=0;exitDy=0;exitPerimeter=0;" edge="1" parent="-S50gkUpp2dCDsw27XBV-27" source="-S50gkUpp2dCDsw27XBV-29" target="8Q9e8ioYnYChDULh_nPz-6">
          <mxGeometry width="50" height="50" relative="1" as="geometry">
            <mxPoint x="710" y="180" as="sourcePoint" />
            <mxPoint x="1170" y="494" as="targetPoint" />
          </mxGeometry>
        </mxCell>
        <mxCell id="8Q9e8ioYnYChDULh_nPz-10" value="Text" style="edgeLabel;html=1;align=center;verticalAlign=middle;resizable=0;points=[];" vertex="1" connectable="0" parent="8Q9e8ioYnYChDULh_nPz-9">
          <mxGeometry x="-0.163" y="3" relative="1" as="geometry">
            <mxPoint as="offset" />
          </mxGeometry>
        </mxCell>
        <mxCell id="8Q9e8ioYnYChDULh_nPz-11" value="Text" style="edgeLabel;html=1;align=center;verticalAlign=middle;resizable=0;points=[];" vertex="1" connectable="0" parent="8Q9e8ioYnYChDULh_nPz-9">
          <mxGeometry x="0.2777" y="4" relative="1" as="geometry">
            <mxPoint x="-1" y="-1" as="offset" />
          </mxGeometry>
        </mxCell>
        <mxCell id="-S50gkUpp2dCDsw27XBV-30" value="&lt;font style=&quot;font-size: 20px;&quot;&gt;Capa de control&lt;/font&gt;" style="shape=folder;fontStyle=1;tabWidth=240;tabHeight=30;tabPosition=left;html=1;boundedLbl=1;labelInHeader=1;container=1;collapsible=0;whiteSpace=wrap;fontSize=20;" parent="1" vertex="1">
          <mxGeometry x="780" y="-430" width="590" height="330" as="geometry" />
        </mxCell>
        <mxCell id="-S50gkUpp2dCDsw27XBV-31" value="" style="html=1;strokeColor=none;resizeWidth=1;resizeHeight=1;fillColor=none;part=1;connectable=0;allowArrows=0;deletable=0;whiteSpace=wrap;fontSize=20;" parent="-S50gkUpp2dCDsw27XBV-30" vertex="1">
          <mxGeometry width="590" height="231" relative="1" as="geometry">
            <mxPoint y="30" as="offset" />
          </mxGeometry>
        </mxCell>
        <mxCell id="-S50gkUpp2dCDsw27XBV-2" value="controllers" style="shape=folder;fontStyle=1;spacingTop=10;tabWidth=40;tabHeight=14;tabPosition=left;html=1;whiteSpace=wrap;fontSize=20;" parent="-S50gkUpp2dCDsw27XBV-30" vertex="1">
          <mxGeometry x="200" y="105" width="150" height="120" as="geometry" />
        </mxCell>
        <mxCell id="-S50gkUpp2dCDsw27XBV-47" style="edgeStyle=orthogonalEdgeStyle;rounded=0;orthogonalLoop=1;jettySize=auto;html=1;entryX=0;entryY=0;entryDx=0;entryDy=180;entryPerimeter=0;dashed=1;strokeWidth=3;" parent="1" source="-S50gkUpp2dCDsw27XBV-46" target="-S50gkUpp2dCDsw27XBV-30" edge="1">
          <mxGeometry relative="1" as="geometry" />
        </mxCell>
        <mxCell id="-S50gkUpp2dCDsw27XBV-46" value="usuarios" style="shape=folder;fontStyle=1;spacingTop=10;tabWidth=40;tabHeight=14;tabPosition=left;html=1;whiteSpace=wrap;fontSize=20;" parent="1" vertex="1">
          <mxGeometry x="300" y="-310" width="150" height="120" as="geometry" />
        </mxCell>
        <mxCell id="-S50gkUpp2dCDsw27XBV-59" value="&lt;font style=&quot;font-size: 20px;&quot;&gt;Capa de acceso a datos&lt;/font&gt;" style="shape=folder;fontStyle=1;tabWidth=240;tabHeight=30;tabPosition=left;html=1;boundedLbl=1;labelInHeader=1;container=1;collapsible=0;whiteSpace=wrap;fontSize=20;" parent="1" vertex="1">
          <mxGeometry x="1590" y="-430" width="590" height="330" as="geometry" />
        </mxCell>
        <mxCell id="-S50gkUpp2dCDsw27XBV-60" value="" style="html=1;strokeColor=none;resizeWidth=1;resizeHeight=1;fillColor=none;part=1;connectable=0;allowArrows=0;deletable=0;whiteSpace=wrap;fontSize=20;" parent="-S50gkUpp2dCDsw27XBV-59" vertex="1">
          <mxGeometry width="590" height="231" relative="1" as="geometry">
            <mxPoint y="30" as="offset" />
          </mxGeometry>
        </mxCell>
        <mxCell id="-S50gkUpp2dCDsw27XBV-61" value="models" style="shape=folder;fontStyle=1;spacingTop=10;tabWidth=40;tabHeight=14;tabPosition=left;html=1;whiteSpace=wrap;fontSize=20;" parent="-S50gkUpp2dCDsw27XBV-59" vertex="1">
          <mxGeometry x="200" y="105" width="150" height="120" as="geometry" />
        </mxCell>
        <mxCell id="-S50gkUpp2dCDsw27XBV-63" style="edgeStyle=orthogonalEdgeStyle;rounded=0;orthogonalLoop=1;jettySize=auto;html=1;entryX=0;entryY=0;entryDx=0;entryDy=180;entryPerimeter=0;dashed=1;strokeWidth=3;exitX=0;exitY=0;exitDx=590;exitDy=180;exitPerimeter=0;startArrow=classic;startFill=1;" parent="1" source="-S50gkUpp2dCDsw27XBV-30" target="-S50gkUpp2dCDsw27XBV-59" edge="1">
          <mxGeometry relative="1" as="geometry">
            <mxPoint x="1085" y="-540" as="sourcePoint" />
            <mxPoint x="497" y="-350" as="targetPoint" />
          </mxGeometry>
        </mxCell>
        <mxCell id="-S50gkUpp2dCDsw27XBV-64" style="edgeStyle=orthogonalEdgeStyle;rounded=0;orthogonalLoop=1;jettySize=auto;html=1;entryX=0.528;entryY=0.087;entryDx=0;entryDy=0;entryPerimeter=0;dashed=1;strokeWidth=3;exitX=0.517;exitY=1.001;exitDx=0;exitDy=0;exitPerimeter=0;startArrow=classic;startFill=1;" parent="1" source="-S50gkUpp2dCDsw27XBV-12" target="-S50gkUpp2dCDsw27XBV-30" edge="1">
          <mxGeometry relative="1" as="geometry">
            <mxPoint x="1085" y="-540" as="sourcePoint" />
            <mxPoint x="1087" y="-400" as="targetPoint" />
          </mxGeometry>
        </mxCell>
        <mxCell id="-S50gkUpp2dCDsw27XBV-66" style="edgeStyle=orthogonalEdgeStyle;rounded=0;orthogonalLoop=1;jettySize=auto;html=1;entryX=0.474;entryY=0.044;entryDx=0;entryDy=0;entryPerimeter=0;dashed=1;strokeWidth=3;exitX=0.5;exitY=1;exitDx=0;exitDy=0;exitPerimeter=0;startArrow=classic;startFill=1;" parent="1" source="-S50gkUpp2dCDsw27XBV-30" target="-S50gkUpp2dCDsw27XBV-27" edge="1">
          <mxGeometry relative="1" as="geometry">
            <mxPoint x="1074.5" y="-80" as="sourcePoint" />
            <mxPoint x="1074.5" y="68" as="targetPoint" />
          </mxGeometry>
        </mxCell>
        <mxCell id="-S50gkUpp2dCDsw27XBV-69" style="edgeStyle=orthogonalEdgeStyle;rounded=0;orthogonalLoop=1;jettySize=auto;html=1;entryX=0.517;entryY=0.043;entryDx=0;entryDy=0;entryPerimeter=0;dashed=1;strokeWidth=3;exitX=0.5;exitY=1;exitDx=0;exitDy=0;exitPerimeter=0;startArrow=classic;startFill=1;" parent="1" source="-S50gkUpp2dCDsw27XBV-59" target="-S50gkUpp2dCDsw27XBV-27" edge="1">
          <mxGeometry relative="1" as="geometry">
            <mxPoint x="1930" y="2" as="sourcePoint" />
            <mxPoint x="1930" y="150" as="targetPoint" />
          </mxGeometry>
        </mxCell>
      </root>
    </mxGraphModel>
  </diagram>
</mxfile>
